<svg xmlns="http://www.w3.org/2000/svg" width="512" height="512" viewBox="0 0 512 512"><title/><path d="M256 496C123.449 496 16 388.551 16 256S123.449 16 256 16s240 107.449 240 240-107.449 240-240 240zm-23.441-375l7.031 165H271l8.441-165h-46.879zm44.692 218.76c-5.921-5.809-13.069-8.719-21.439-8.719-8.381 0-15.461 2.91-21.24 8.719-5.779 5.831-8.681 12.881-8.681 21.18 0 9.499 3.03 16.89 9.079 22.17 6.049 5.291 13.129 7.931 21.24 7.931 7.969 0 14.951-2.681 20.94-8.029 5.981-5.34 8.97-12.701 8.97-22.069 0-8.299-2.959-15.349-8.869-21.18z"/></svg>