<svg xmlns="http://www.w3.org/2000/svg" width="512" height="512" viewBox="0 0 512 512"><title/><path d="M241.778 270.222v128c0 7.854 6.368 14.222 14.222 14.222s14.222-6.368 14.222-14.222v-128h128c7.854 0 14.222-6.368 14.222-14.222s-6.368-14.222-14.222-14.222h-128v-128c0-7.855-6.368-14.222-14.222-14.222s-14.222 6.367-14.222 14.222v128h-128c-7.855 0-14.222 6.368-14.222 14.222s6.367 14.222 14.222 14.222h128z"/><path d="M0 256C0 114.615 114.615 0 256 0s256 114.615 256 256-114.615 256-256 256S0 397.385 0 256zm28.445 0c0 125.675 101.88 227.555 227.555 227.555S483.555 381.675 483.555 256c0-125.675-101.88-227.555-227.555-227.555S28.445 130.325 28.445 256z"/></svg>