<svg class="lds-spinner" width="200" height="200" xmlns="http://www.w3.org/2000/svg" viewBox="0 0 100 100" preserveAspectRatio="xMidYMid" style="background:0 0"><rect x="46.5" y="15.5" rx="12.09" ry="4.03" width="7" height="17" fill="#eee"><animate attributeName="opacity" values="1;0" dur="1s" begin="-0.9166666666666666s" repeatCount="indefinite"/></rect><rect x="46.5" y="15.5" rx="12.09" ry="4.03" width="7" height="17" fill="#eee" transform="rotate(30 50 50)"><animate attributeName="opacity" values="1;0" dur="1s" begin="-0.8333333333333334s" repeatCount="indefinite"/></rect><rect x="46.5" y="15.5" rx="12.09" ry="4.03" width="7" height="17" fill="#eee" transform="rotate(60 50 50)"><animate attributeName="opacity" values="1;0" dur="1s" begin="-0.75s" repeatCount="indefinite"/></rect><rect x="46.5" y="15.5" rx="12.09" ry="4.03" width="7" height="17" fill="#eee" transform="rotate(90 50 50)"><animate attributeName="opacity" values="1;0" dur="1s" begin="-0.6666666666666666s" repeatCount="indefinite"/></rect><rect x="46.5" y="15.5" rx="12.09" ry="4.03" width="7" height="17" fill="#eee" transform="rotate(120 50 50)"><animate attributeName="opacity" values="1;0" dur="1s" begin="-0.5833333333333334s" repeatCount="indefinite"/></rect><rect x="46.5" y="15.5" rx="12.09" ry="4.03" width="7" height="17" fill="#eee" transform="rotate(150 50 50)"><animate attributeName="opacity" values="1;0" dur="1s" begin="-0.5s" repeatCount="indefinite"/></rect><rect x="46.5" y="15.5" rx="12.09" ry="4.03" width="7" height="17" fill="#eee" transform="rotate(180 50 50)"><animate attributeName="opacity" values="1;0" dur="1s" begin="-0.4166666666666667s" repeatCount="indefinite"/></rect><rect x="46.5" y="15.5" rx="12.09" ry="4.03" width="7" height="17" fill="#eee" transform="rotate(210 50 50)"><animate attributeName="opacity" values="1;0" dur="1s" begin="-0.3333333333333333s" repeatCount="indefinite"/></rect><rect x="46.5" y="15.5" rx="12.09" ry="4.03" width="7" height="17" fill="#eee" transform="rotate(240 50 50)"><animate attributeName="opacity" values="1;0" dur="1s" begin="-0.25s" repeatCount="indefinite"/></rect><rect x="46.5" y="15.5" rx="12.09" ry="4.03" width="7" height="17" fill="#eee" transform="rotate(270 50 50)"><animate attributeName="opacity" values="1;0" dur="1s" begin="-0.16666666666666666s" repeatCount="indefinite"/></rect><rect x="46.5" y="15.5" rx="12.09" ry="4.03" width="7" height="17" fill="#eee" transform="rotate(300 50 50)"><animate attributeName="opacity" values="1;0" dur="1s" begin="-0.08333333333333333s" repeatCount="indefinite"/></rect><rect x="46.5" y="15.5" rx="12.09" ry="4.03" width="7" height="17" fill="#eee" transform="rotate(330 50 50)"><animate attributeName="opacity" values="1;0" dur="1s" begin="0s" repeatCount="indefinite"/></rect></svg>