<svg width="100" height="100" xmlns="http://www.w3.org/2000/svg"><g fill="none" fill-rule="evenodd"><path d="M50.001 100C22.385 100 0 77.615 0 50.001 0 22.385 22.385 0 50.001 0 77.615 0 100 22.385 100 50.001 100 77.615 77.615 100 50.001 100z" fill="#F3F4F5"/><path d="M45.44 22h10.118l-1.821 34.217h-6.78L45.44 22zm9.646 45.366C56.36 68.575 57 70.036 57 71.758c0 1.943-.645 3.47-1.936 4.577-1.293 1.11-2.8 1.665-4.52 1.665-1.75 0-3.278-.547-4.584-1.644C44.654 75.26 44 73.728 44 71.758c0-1.721.626-3.183 1.873-4.392 1.248-1.205 2.776-1.809 4.585-1.809 1.806 0 3.35.604 4.628 1.809z" fill="#666F83"/></g></svg>