<svg class="icon" viewBox="0 0 1025 1024" xmlns="http://www.w3.org/2000/svg" width="200.195" height="200"><defs><style/></defs><path d="M469.079 719.457l138.475-350.02 144.607 350.02H469.079zm-290.236 0l138.475-350.02 144.607 350.02H178.843zm828.296-79.712l-5.621 19.928H908.52l-9.709-19.928h108.328m6.131-28.104h-125.7l-9.198-20.95h138.986m2.555-28.615H866.11l-9.198-21.461h165.557m0-27.593h-177.31l-8.175-20.95h185.996m-3.066-28.615H823.698l-8.176-20.95h202.347m-4.599-28.104H804.28l-9.708-20.95h214.1" fill="#E41E26"/><path d="M511.49 2.044h20.95l22.483 2.044 20.95 1.022 19.928 3.577 20.95 3.576 19.929 4.6 19.928 6.131 19.928 5.62 9.198 3.578 9.708 3.576 18.906 8.176 18.396 8.176 17.373 9.197 17.373 9.198 17.884 10.73 16.352 11.753 16.35 11.752 15.33 11.753 15.33 12.774 15.329 14.308 14.307 14.307L892.68 172.2l12.774 15.329 6.132 8.176 5.62 8.175 12.775 16.352 10.73 16.35 10.731 16.352 10.22 17.373 8.175 18.396 9.709 17.884 7.154 18.395 7.153 19.928 7.154 18.906H782.308L646.9 48.032 505.87 404.184 357.686 51.609l-260.6 672.958L215.635 872.75h603.465L929.47 711.792l-10.73-24.527h71.536l-7.153 18.907-8.176 17.373-8.176 17.373-8.175 16.351-10.73 17.374-9.198 16.351-11.753 15.33-10.73 15.329-11.753 15.329-12.774 15.33-12.775 13.285-14.307 14.307-14.308 12.775-14.307 13.285-15.33 11.753-15.329 11.752-15.329 10.73-16.351 10.731-16.352 9.198-17.373 9.708-17.373 8.176-17.373 7.154-18.906 7.153-17.374 7.154-18.906 5.62-19.928 4.6-18.906 4.598-19.928 3.577-9.198 1.022-10.73 1.022-19.929 2.044-19.928 1.022h-47.01l-26.06-2.555-26.06-3.066-26.06-4.599-24.526-6.131-23.505-5.621-23.505-8.176-23.505-9.197-21.972-10.73-22.483-10.731L256 955.018l-10.73-5.62-20.95-13.286-19.929-14.308-19.928-15.329-9.198-8.176-8.175-8.175-9.198-8.176-8.175-8.176-17.374-17.373-16.351-18.395-6.643-9.709-7.153-10.73-15.33-19.928-6.131-9.709-7.154-10.73-5.62-10.73-6.133-11.753-11.752-20.95-10.73-23.506-8.176-22.483-8.176-24.526-7.154-23.505-3.577-13.286-2.043-11.752-2.044-13.286-2.555-12.774-3.577-24.527-1.022-27.082-1.022-12.775v-13.285l1.022-25.549 1.022-26.06 3.577-25.549 4.599-26.06 5.62-24.526 7.154-23.505 8.176-23.505 8.175-23.505 10.73-22.483 11.753-22.484 6.132-10.73 5.62-10.73 13.286-20.95 15.33-19.929 14.307-19.928 8.176-9.198 8.175-8.175 8.176-9.198 9.198-8.175 17.373-17.374 17.373-16.351 10.73-7.154 9.198-7.153 19.928-15.33 10.73-6.131 10.731-7.154 10.731-6.132 10.73-5.62 22.484-11.753 21.972-10.73 23.505-9.71 23.505-7.153 23.505-7.154 12.774-3.577 11.753-2.043 12.774-2.044L433.31 5.62l26.06-3.577 26.06-1.022L498.205 0h13.285z" fill="#E41E26"/></svg>