<svg width="66" height="67" xmlns="http://www.w3.org/2000/svg" xmlns:xlink="http://www.w3.org/1999/xlink"><defs><linearGradient x1="83.479%" y1="35.458%" x2="8.798%" y2="89.768%" id="a"><stop stop-color="#FEC48B" stop-opacity=".649" offset="0%"/><stop stop-color="#FC9153" offset="100%"/></linearGradient><linearGradient x1="50%" y1="-68.859%" x2="50%" y2="100%" id="b"><stop stop-color="#F58A4E" stop-opacity=".343" offset="0%"/><stop stop-color="#E85226" offset="100%"/></linearGradient><filter x="-9.2%" y="-94.8%" width="118.5%" height="289.6%" filterUnits="objectBoundingBox" id="c"><feGaussianBlur stdDeviation="1.624" in="SourceGraphic"/></filter><linearGradient x1="8.042%" y1="2.37%" x2="51.814%" y2="105.805%" id="e"><stop stop-color="#FF7F31" offset="0%"/><stop stop-color="#FB4F46" offset="100%"/></linearGradient><rect id="d" x="5.139" width="41.707" height="50.975" rx="4"/><linearGradient x1="14.758%" y1="60.326%" x2="106.223%" y2="76.967%" id="i"><stop stop-color="#FFA653" offset="0%"/><stop stop-color="#FB5E42" offset="100%"/></linearGradient><path d="M25.863-30.122l3.91.288C42.19-28.919 51.515-18.11 50.6-5.691c-.007.095-.014.19-.023.284-1.136 13.15-11.565 23.58-24.715 24.716C13.457 20.38 2.53 11.193 1.458-1.213l-.022-.285-.289-3.909C.211-18.12 9.757-29.185 22.47-30.122a23.082 23.082 0 0 1 3.393 0z" id="h"/><filter x="-62.5%" y="-58.5%" width="225.1%" height="225.1%" filterUnits="objectBoundingBox" id="g"><feMorphology radius="4" operator="dilate" in="SourceAlpha" result="shadowSpreadOuter1"/><feOffset dy="2" in="shadowSpreadOuter1" result="shadowOffsetOuter1"/><feGaussianBlur stdDeviation="6" in="shadowOffsetOuter1" result="shadowBlurOuter1"/><feColorMatrix values="0 0 0 0 0.776470588 0 0 0 0 0.188235294 0 0 0 0 0.031372549 0 0 0 0.4 0" in="shadowBlurOuter1"/></filter><path d="M25.863-30.122l3.91.288C42.19-28.919 51.515-18.11 50.6-5.691c-.007.095-.014.19-.023.284-1.136 13.15-11.565 23.58-24.715 24.716C13.457 20.38 2.53 11.193 1.458-1.213l-.022-.285-.289-3.909C.211-18.12 9.757-29.185 22.47-30.122a23.082 23.082 0 0 1 3.393 0z" id="k"/><filter x="-5%" y="-5%" width="110.1%" height="110.1%" filterUnits="objectBoundingBox" id="j"><feGaussianBlur stdDeviation="2" in="SourceAlpha" result="shadowBlurInner1"/><feOffset dy="1" in="shadowBlurInner1" result="shadowOffsetInner1"/><feComposite in="shadowOffsetInner1" in2="SourceAlpha" operator="arithmetic" k2="-1" k3="1" result="shadowInnerInner1"/><feColorMatrix values="0 0 0 0 0.97254902 0 0 0 0 0.905882353 0 0 0 0 0.109803922 0 0 0 0.4 0" in="shadowInnerInner1"/></filter><linearGradient x1="16.94%" y1="0%" x2="75.338%" y2="100%" id="n"><stop stop-color="#FFE04C" offset="0%"/><stop stop-color="#FCA933" offset="100%"/></linearGradient><circle id="m" cx="26.015" cy="18.735" r="8.565"/><filter x="-93.4%" y="-81.7%" width="286.8%" height="286.8%" filterUnits="objectBoundingBox" id="l"><feOffset dy="2" in="SourceAlpha" result="shadowOffsetOuter1"/><feGaussianBlur stdDeviation="5" in="shadowOffsetOuter1" result="shadowBlurOuter1"/><feColorMatrix values="0 0 0 0 0.905638818 0 0 0 0 0.259747134 0 0 0 0 0.11897587 0 0 0 1 0" in="shadowBlurOuter1"/></filter><filter x="-64.2%" y="-52.5%" width="228.4%" height="228.4%" filterUnits="objectBoundingBox" id="o"><feGaussianBlur stdDeviation=".5" in="SourceAlpha" result="shadowBlurInner1"/><feOffset dy="1" in="shadowBlurInner1" result="shadowOffsetInner1"/><feComposite in="shadowOffsetInner1" in2="SourceAlpha" operator="arithmetic" k2="-1" k3="1" result="shadowInnerInner1"/><feColorMatrix values="0 0 0 0 1 0 0 0 0 1 0 0 0 0 1 0 0 0 0.5 0" in="shadowInnerInner1"/></filter><path d="M26.015 25.694a6.959 6.959 0 1 1 0-13.917 6.959 6.959 0 0 1 0 13.917zm0-.28a6.678 6.678 0 1 0 0-13.356 6.678 6.678 0 0 0 0 13.355z" id="q"/><filter x="-14.4%" y="-7.2%" width="128.7%" height="128.7%" filterUnits="objectBoundingBox" id="p"><feOffset dy="1" in="SourceAlpha" result="shadowOffsetOuter1"/><feGaussianBlur stdDeviation=".5" in="shadowOffsetOuter1" result="shadowBlurOuter1"/><feColorMatrix values="0 0 0 0 0.960784314 0 0 0 0 0.552941176 0 0 0 0 0.0666666667 0 0 0 0.4 0" in="shadowBlurOuter1"/></filter><path d="M26.015 8.03a8.565 8.565 0 0 1 8.565 8.564v7.494a8.565 8.565 0 1 1-17.13 0v-7.494a8.565 8.565 0 0 1 8.565-8.565z" id="r"/><filter x="-17.5%" y="-12.2%" width="135%" height="124.4%" filterUnits="objectBoundingBox" id="s"><feGaussianBlur stdDeviation="1" in="SourceGraphic"/></filter><linearGradient x1="50%" y1="0%" x2="50%" y2="100%" id="v"><stop stop-color="#E17C15" offset="0%"/><stop stop-color="#97510A" offset="100%"/></linearGradient><path d="M28.798 18.823V17.58h1.634v1.374c-.034 2.24-2.007 4.006-4.32 4.064-2.356-.017-4.346-1.8-4.379-4.064v-2.478c0-.254.166-.417.415-.417h6.642v1.513h-5.208c-.133 0-.215.082-.215.212v1.006a2.754 2.754 0 0 0 2.744 2.699c1.485-.05 2.67-1.21 2.687-2.666z" id="u"/><filter x="-80.5%" y="-71.9%" width="260.9%" height="301.2%" filterUnits="objectBoundingBox" id="t"><feOffset dy="2" in="SourceAlpha" result="shadowOffsetOuter1"/><feGaussianBlur stdDeviation="2" in="shadowOffsetOuter1" result="shadowBlurOuter1"/><feColorMatrix values="0 0 0 0 0.918792517 0 0 0 0 0.622852044 0 0 0 0 0.0824390066 0 0 0 1 0" in="shadowBlurOuter1"/></filter><filter x="-63.2%" y="-50.3%" width="226.5%" height="258.1%" filterUnits="objectBoundingBox" id="w"><feGaussianBlur stdDeviation="1" in="SourceAlpha" result="shadowBlurInner1"/><feOffset dy="1" in="shadowBlurInner1" result="shadowOffsetInner1"/><feComposite in="shadowOffsetInner1" in2="SourceAlpha" operator="arithmetic" k2="-1" k3="1" result="shadowInnerInner1"/><feColorMatrix values="0 0 0 0 0.536059736 0 0 0 0 0.100162203 0 0 0 0 0.100162203 0 0 0 0.5 0" in="shadowInnerInner1"/></filter><rect id="x" x="5.139" width="41.707" height="50.975" rx="4"/><filter x="-3.6%" y="-2.9%" width="107.2%" height="105.9%" filterUnits="objectBoundingBox" id="y"><feGaussianBlur stdDeviation="1" in="SourceAlpha" result="shadowBlurInner1"/><feOffset dy="1" in="shadowBlurInner1" result="shadowOffsetInner1"/><feComposite in="shadowOffsetInner1" in2="SourceAlpha" operator="arithmetic" k2="-1" k3="1" result="shadowInnerInner1"/><feColorMatrix values="0 0 0 0 0.97254902 0 0 0 0 0.905882353 0 0 0 0 0.109803922 0 0 0 0.2 0" in="shadowInnerInner1"/></filter><rect id="z" x="5.139" width="41.707" height="50.975" rx="4"/><filter x="-8.4%" y="-6.9%" width="116.8%" height="113.7%" filterUnits="objectBoundingBox" id="A"><feMorphology radius="1" in="SourceAlpha" result="shadowSpreadInner1"/><feGaussianBlur stdDeviation="2" in="shadowSpreadInner1" result="shadowBlurInner1"/><feOffset dy="-2" in="shadowBlurInner1" result="shadowOffsetInner1"/><feComposite in="shadowOffsetInner1" in2="SourceAlpha" operator="arithmetic" k2="-1" k3="1" result="shadowInnerInner1"/><feColorMatrix values="0 0 0 0 0.815686275 0 0 0 0 0.00784313725 0 0 0 0 0.105882353 0 0 0 0.2 0" in="shadowInnerInner1"/></filter></defs><g fill="none" fill-rule="evenodd"><circle fill="#FDD14B" opacity=".8" cx="3.212" cy="55.885" r="3.212"/><circle fill="#FF8037" opacity=".521" cx="63.593" cy="21.198" r="1.927"/><circle fill="url(#a)" opacity=".6" cx="47.534" cy="14.132" r="14.132"/><g transform="translate(3.854 8.993)"><ellipse fill="url(#b)" opacity=".593" filter="url(#c)" cx="26.337" cy="51.388" rx="26.337" ry="2.569"/><mask id="f" fill="#fff"><use xlink:href="#d"/></mask><use fill="url(#e)" xlink:href="#d"/><g mask="url(#f)" transform="rotate(45 25.874 -5.395)"><use fill="#000" filter="url(#g)" xlink:href="#h"/><use fill="url(#i)" xlink:href="#h"/></g><g mask="url(#f)" transform="rotate(45 25.874 -5.395)" fill="#000"><use filter="url(#j)" xlink:href="#k"/></g><use fill="#000" filter="url(#l)" xlink:href="#m"/><use fill="url(#n)" xlink:href="#m"/><use fill="#000" filter="url(#o)" xlink:href="#m"/><g fill-rule="nonzero"><use fill="#000" filter="url(#p)" xlink:href="#q"/><use fill="#FA8C2B" xlink:href="#q"/></g><use fill="#FFF7B9" filter="url(#s)" xlink:href="#r"/><g opacity=".578"><use fill="#000" filter="url(#t)" xlink:href="#u"/><use fill="url(#v)" xlink:href="#u"/><use fill="#000" filter="url(#w)" xlink:href="#u"/></g><g fill="#000"><use filter="url(#y)" xlink:href="#x"/></g><g fill="#000"><use filter="url(#A)" xlink:href="#z"/></g></g></g></svg>